# xmcd
#
# Track frame offsets:
#	150
#	16208
#	36535
#	51273
#	69887
#	86005
#	102906
#	117254
#	135415
#	151473
#	171800
#	186538
#	205152
#	221270
#	238171
#	252519
#
# Disc length: 3609 seconds
#
# Revision: 0
# Processed by: cddbd v1.5.2PL0 Copyright (c) Steve Scherf et al.
# Submitted via: audiograbber 1.83.01
#
DISCID=e30e1710
DTITLE=Compilation - CB60409
DYEAR=2009
DGENRE=Country
TTITLE0=Chesney, Kenny - One Last Night
TTITLE1=McBride, Martina - I Just Call You Mine
TTITLE2=Nichols, Joe - Believers
TTITLE3=Womack, Lee Ann - Solitary Thinkin'
TTITLE4=Ingram, Jack - Barefoot And Crazy
TTITLE5=Caitlin and Will - Address In The Stars
TTITLE6=Chesnutt, Mark - She Never Got Over Me
TTITLE7=Covington, Bucky - I Want My Life Back
TTITLE8=Chesney, Kenny - One Last Night
TTITLE9=McBride, Martina - I Just Call You Mine
TTITLE10=Nichols, Joe - Believers
TTITLE11=Womack, Lee Ann - Solitary Thinkin'
TTITLE12=Ingram, Jack - Barefoot And Crazy
TTITLE13=Caitlin and Will - Address In The Stars
TTITLE14=Chesnutt, Mark - She Never Got Over Me
TTITLE15=Covington, Bucky - I Want My Life Back
EXTD=
EXTT0=
EXTT1=
EXTT2=
EXTT3=
EXTT4=
EXTT5=
EXTT6=
EXTT7=
EXTT8=
EXTT9=
EXTT10=
EXTT11=
EXTT12=
EXTT13=
EXTT14=
EXTT15=
PLAYORDER=
